# xmcd CD database file
#
# Track frame offsets:
#	150
#	17329
#	35684
#	54540
#	72707
#	92107
#	113032
#	135801
#	157919
#	184329
#	201985
#	224696
#	244673
#	263729
#	281235
#	301914
#
# Disc length: 4291 seconds
#
# Revision: 2
# Processed by: cddbd v1.5.2PL0 Copyright (c) Steve Scherf et al.
# Submitted via: CDex 1.51
#
DISCID=e910c110
DTITLE=Anthony David - The Red Clay Chronicles
DYEAR=2006
DGENRE=R&B
TTITLE0=Stop Playin'
TTITLE1=Smoke One
TTITLE2=Everything Is Everything
TTITLE3=Words (ft India.Arie)
TTITLE4=On and On
TTITLE5=Lady
TTITLE6=ATL Sunshine
TTITLE7=Something About You
TTITLE8=Sho Nuff
TTITLE9=Better Than
TTITLE10=Red Clay Chronicles
TTITLE11=Kin Folk
TTITLE12=Smoke One With Earl (ft Earl Klugh)
TTITLE13=So/So Love (ft Julie Dexter)
TTITLE14=GA Pouch (Remix)
TTITLE15=Spittin' Game
EXTD=YEAR: 2006
EXTT0=
EXTT1=
EXTT2=
EXTT3=
EXTT4=
EXTT5=
EXTT6=
EXTT7=
EXTT8=
EXTT9=
EXTT10=
EXTT11=
EXTT12=
EXTT13=
EXTT14=
EXTT15=
PLAYORDER=
